<svg width="69" height="69" viewBox="0 0 69 69" fill="none" xmlns="http://www.w3.org/2000/svg">
<path d="M20.6536 45.7427H20.6564C20.6587 45.7427 20.661 45.7422 20.6634 45.7422H53.0645C53.8622 45.7422 54.5636 45.2131 54.7828 44.4461L61.9312 19.4266C62.0853 18.8872 61.9773 18.3073 61.6399 17.8596C61.302 17.4119 60.7738 17.1484 60.213 17.1484H16.5321L15.2545 11.3994C15.0726 10.5817 14.3475 10 13.5098 10H2.78711C1.80001 10 1 10.8 1 11.7871C1 12.7742 1.80001 13.5742 2.78711 13.5742H12.0764C12.3026 14.593 18.1898 41.086 18.5286 42.6101C16.6293 43.4358 15.2969 45.3294 15.2969 47.5294C15.2969 50.4855 17.7021 52.8907 20.6582 52.8907H53.0645C54.0516 52.8907 54.8517 52.0907 54.8517 51.1036C54.8517 50.1165 54.0516 49.3165 53.0645 49.3165H20.6582C19.673 49.3165 18.8711 48.5146 18.8711 47.5294C18.8711 46.5455 19.6702 45.745 20.6536 45.7427ZM57.8437 20.7227L51.7163 42.168H22.0917L17.326 20.7227H57.8437Z" fill="#FF8300"/>
<path d="M18.8711 58.252C18.8711 61.2081 21.2762 63.6133 24.2324 63.6133C27.1886 63.6133 29.5938 61.2081 29.5938 58.252C29.5938 55.2958 27.1886 52.8906 24.2324 52.8906C21.2762 52.8906 18.8711 55.2958 18.8711 58.252ZM24.2324 56.4648C25.2177 56.4648 26.0195 57.2667 26.0195 58.252C26.0195 59.2372 25.2177 60.0391 24.2324 60.0391C23.2472 60.0391 22.4453 59.2372 22.4453 58.252C22.4453 57.2667 23.2472 56.4648 24.2324 56.4648Z" fill="#FF8300"/>
<path d="M44.1289 58.252C44.1289 61.2081 46.5341 63.6133 49.4902 63.6133C52.4464 63.6133 54.8516 61.2081 54.8516 58.252C54.8516 55.2958 52.4464 52.8906 49.4902 52.8906C46.5341 52.8906 44.1289 55.2958 44.1289 58.252ZM49.4902 56.4648C50.4755 56.4648 51.2774 57.2667 51.2774 58.252C51.2774 59.2372 50.4755 60.0391 49.4902 60.0391C48.505 60.0391 47.7031 59.2372 47.7031 58.252C47.7031 57.2667 48.505 56.4648 49.4902 56.4648Z" fill="#FF8300"/>
<line x1="4.94975" y1="5" x2="64" y2="64.0502" stroke="black" stroke-width="7" stroke-linecap="round"/>
</svg>
