<svg width="28" height="29" viewBox="0 0 28 29" fill="none" xmlns="http://www.w3.org/2000/svg">
<path d="M22.1924 6.8076C19.737 4.35225 16.4724 3 13 3C9.52744 3 6.26295 4.35225 3.8076 6.8076C1.35225 9.26295 0 12.5274 0 16C0 19.4724 1.35225 22.737 3.8076 25.1924C6.26295 27.6478 9.52744 29 13 29C16.4724 29 19.737 27.6478 22.1924 25.1924C24.6478 22.737 26 19.4724 26 16C26 12.5274 24.6478 9.26295 22.1924 6.8076V6.8076ZM6.51726 25.465C7.06097 22.3344 9.7738 20.0252 13 20.0252C16.2264 20.0252 18.939 22.3344 19.4827 25.465C17.637 26.7331 15.4038 27.4766 13 27.4766C10.5962 27.4766 8.36304 26.7331 6.51726 25.465ZM8.86649 14.3683C8.86649 12.0889 10.7208 10.2347 13 10.2347C15.2792 10.2347 17.1335 12.0891 17.1335 14.3683C17.1335 16.6475 15.2792 18.5018 13 18.5018C10.7208 18.5018 8.86649 16.6475 8.86649 14.3683V14.3683ZM20.8023 24.4083C20.3922 22.9509 19.578 21.6286 18.4366 20.5957C17.7363 19.9619 16.9393 19.4619 16.0824 19.1094C17.6312 18.0991 18.6572 16.3513 18.6572 14.3683C18.6572 11.249 16.1193 8.7113 13 8.7113C9.88072 8.7113 7.34305 11.249 7.34305 14.3683C7.34305 16.3513 8.36899 18.0991 9.91762 19.1094C9.06088 19.4619 8.26366 19.9617 7.56343 20.5955C6.42224 21.6284 5.60776 22.9507 5.19774 24.4081C2.93936 22.3108 1.52344 19.3178 1.52344 16C1.52344 9.67178 6.67178 4.52344 13 4.52344C19.3282 4.52344 24.4766 9.67178 24.4766 16C24.4766 19.318 23.0606 22.311 20.8023 24.4083V24.4083Z" fill="white"/>
<line x1="15" y1="7" x2="27" y2="7" stroke="black" stroke-width="2" stroke-linecap="round"/>
<line x1="21" y1="13" x2="21" y2="1" stroke="black" stroke-width="2" stroke-linecap="round"/>
</svg>
