<svg height="512" viewBox="0 0 128 128" width="512" xmlns="http://www.w3.org/2000/svg"><g><path d="m90.937 13.916a5.882 5.882 0 0 0 -5.875 5.875v4.856l-5.871 2.878a156.561 156.561 0 0 1 -31.457 11.41 156.4 156.4 0 0 1 -37.31 4.536 10.436 10.436 0 0 0 -10.424 10.429v15.676a10.435 10.435 0 0 0 10.424 10.424q4.451 0 8.9.264a71.659 71.659 0 0 0 -6.357 29.388v.28a4.158 4.158 0 0 0 4.153 4.153h14.8a4.154 4.154 0 0 0 3.795-5.842 32.24 32.24 0 0 1 -2.787-13.471h7.286a1.753 1.753 0 0 0 .958-.285l12.68-8.3a156.221 156.221 0 0 1 25.334 9.758l5.871 2.878v4.856a5.875 5.875 0 0 0 11.75 0v-83.888a5.882 5.882 0 0 0 -5.87-5.875zm-87.437 55.66v-15.676a6.932 6.932 0 0 1 6.924-6.924 159.87 159.87 0 0 0 35.976-4.125v37.769q-7.752-1.778-15.628-2.793a159.075 159.075 0 0 0 -20.348-1.327 6.931 6.931 0 0 1 -6.924-6.924zm28.973 40.711a.637.637 0 0 1 -.548.3h-14.8a.654.654 0 0 1 -.653-.653v-.28a68.131 68.131 0 0 1 6.584-29.119q4.557.374 9.061 1.008a35.664 35.664 0 0 0 .408 28.126.638.638 0 0 1 -.052.618zm7.227-19.016h-6.538a32.234 32.234 0 0 1 2.538-9.184c4.037.664 8.055 1.469 12.038 2.449.54.132 1.075.281 1.614.42zm41.032 1.529a159.949 159.949 0 0 0 -30.832-11.329v-39.471a159.952 159.952 0 0 0 30.83-11.333l4.33-2.122v66.381zm12.58 10.877a2.375 2.375 0 0 1 -4.75 0v-83.886a2.375 2.375 0 1 1 4.75 0z"/><path d="m126.25 59.675h-19a1.75 1.75 0 0 0 0 3.5h19a1.75 1.75 0 0 0 0-3.5z"/><path d="m107.252 49.554a1.745 1.745 0 0 0 .841-.217l15.25-8.377a1.75 1.75 0 1 0 -1.686-3.067l-15.25 8.377a1.75 1.75 0 0 0 .845 3.284z"/><path d="m123.343 81.89-15.25-8.377a1.75 1.75 0 1 0 -1.686 3.067l15.25 8.378a1.75 1.75 0 1 0 1.686-3.068z"/></g></svg>